{"title":"Bram_Stocker's_Dracula_1992_en_es_fr_pt_ar.mkv","uid":7272309,"size":1490676770,"categoryP":"video","categoryS":"movies","magnet":"?xt=urn:btih:b222f820dd19a1c1af99df3e128cb817503b1d85&amp;dn=Bram_Stocker%27s_Dracula_1992_en_es_fr_pt_ar.mkv&amp;tr=udp%3A%2F%2Ftracker.openbittorrent.com%3A80&amp;tr=udp%3A%2F%2Fopen.demonii.com%3A1337&amp;tr=udp%3A%2F%2Ftracker.coppersurfer.tk%3A6969&amp;tr=udp%3A%2F%2Fexodus.desync.com%3A6969","seeders":1,"leechers":0,"uploader":"DayakAn9el","files":-1,"time":1337088962,"description":"DVD Rip\n\nStream #0:0(eng): Video: h264 (High), yuv420p, 720x544 [SAR 4352:3105 DAR 128:69], SAR 199:142 DAR 8955:4828, 25 fps, 25 tbr, 1k tbn, 180k tbc (default)\nStream #0:1(eng): Audio: aac, 48000 Hz, stereo, s16 (default)\nStream #0:2(spa): Audio: aac, 48000 Hz, stereo, s16\nStream #0:3(eng): Subtitle: dvd_subtitle\nStream #0:4(fre): Subtitle: dvd_subtitle\nStream #0:5(spa): Subtitle: dvd_subtitle\nStream #0:6(por): Subtitle: dvd_subtitle\nStream #0:7(ara): Subtitle: dvd_subtitle\nStream #0:8(fre): Subtitle: dvd_subtitle\nStream #0:9(spa): Subtitle: dvd_subtitle","torrent":{"xt":"urn:btih:b222f820dd19a1c1af99df3e128cb817503b1d85","amp;dn":"Bram_Stocker%27s_Dracula_1992_en_es_fr_pt_ar.mkv","amp;tr":["udp%3A%2F%2Ftracker.openbittorrent.com%3A80","udp%3A%2F%2Fopen.demonii.com%3A1337","udp%3A%2F%2Ftracker.coppersurfer.tk%3A6969","udp%3A%2F%2Fexodus.desync.com%3A6969"],"infoHash":"b222f820dd19a1c1af99df3e128cb817503b1d85","infoHashBuffer":{"type":"Buffer","data":[178,34,248,32,221,25,161,193,175,153,223,62,18,140,184,23,80,59,29,133]},"announce":[],"urlList":[]}}